<svg width="558" height="114" viewBox="0 0 558 114" fill="none" xmlns="http://www.w3.org/2000/svg">
<path d="M43.9863 1.58691C47.8845 1.37035 52.9327 1.57979 58.2617 1.9873C68.9194 2.80231 80.9946 4.43592 87.6885 5.17969C94.9444 5.98598 101.122 10.5254 105.944 15.2207C108.373 17.5851 110.504 20.0366 112.294 22.1562C114.118 24.3166 115.517 26.0436 116.583 27.1094C117.671 28.1974 118.975 29.351 120.405 30.6309C121.82 31.897 123.338 33.2696 124.782 34.7461C127.654 37.6815 130.371 41.158 131.472 45.2842C132.54 49.2887 132.526 52.5046 131.883 57.0078C131.565 59.2319 131.09 61.7978 130.514 64.9268C129.936 68.0657 129.25 71.8022 128.503 76.4102C125.464 95.1514 120.357 102.93 115.638 108.174C115.158 108.707 114.462 109.037 113.833 109.265C113.158 109.509 112.338 109.713 111.417 109.888C109.571 110.238 107.154 110.503 104.33 110.706C98.6734 111.113 91.2141 111.284 83.0605 111.357C66.7007 111.504 47.5522 111.254 34.0684 111.67C30.8265 111.77 28.287 109.631 25.7842 106.858C24.5011 105.437 23.1268 103.729 21.6074 101.856C20.0779 99.9715 18.3774 97.89 16.4014 95.667C8.57695 86.8645 2.58457 82.424 1.52832 70.8066C1.37355 69.1041 1.86291 66.8764 2.66992 64.4326C3.49424 61.9364 4.7187 59.0203 6.2041 55.8604C9.17638 49.5374 13.2479 42.1195 17.4111 34.9199C21.5776 27.7147 25.8523 20.7002 29.2363 15.1826C32.6552 9.60827 35.0938 5.67348 35.6807 4.5C36.3016 3.25811 37.6946 2.64545 38.9521 2.29297C40.3144 1.91121 42.0446 1.69479 43.9863 1.58691Z" stroke="#0A2A1D" stroke-width="3"/>
<mask id="mask0_2194_10234" style="mask-type:alpha" maskUnits="userSpaceOnUse" x="2" y="2" width="129" height="109">
<path d="M44.0664 3.03418C47.8666 2.82306 52.8383 3.02633 58.1514 3.43262C68.7775 4.2452 80.7802 5.8713 87.5283 6.62109C94.2951 7.37304 100.18 11.6325 104.933 16.2598C107.309 18.5738 109.404 20.9812 111.186 23.0908C112.968 25.2018 114.435 27.0117 115.558 28.1348C116.681 29.2585 118.024 30.4449 119.438 31.7109C120.853 32.9766 122.339 34.3219 123.746 35.7607C126.56 38.6376 129.068 41.8949 130.071 45.6572C131.074 49.4157 131.073 52.4235 130.447 56.8027C130.135 58.9914 129.666 61.5239 129.088 64.6641C128.51 67.8046 127.822 71.5543 127.072 76.1787C124.071 94.6866 119.067 102.196 114.56 107.204C114.326 107.464 113.896 107.694 113.299 107.901C112.7 108.109 111.926 108.296 110.996 108.463C109.136 108.798 106.647 109.058 103.679 109.26C97.7428 109.663 89.8853 109.835 81.2979 109.908C64.1211 110.054 44.0238 109.804 30.5244 110.221C30.2603 110.229 29.9842 110.128 29.6904 109.934C29.3965 109.739 29.0803 109.45 28.7354 109.075C28.0455 108.326 27.2319 107.227 26.2324 105.849C24.2323 103.09 21.4833 99.2018 17.4854 94.7041C9.4912 85.7107 3.97453 81.6954 2.97266 70.6748C2.8467 69.2889 3.24875 67.3036 4.04688 64.8867C4.8456 62.4682 6.04366 59.611 7.5166 56.4775C10.4628 50.21 14.5105 42.8334 18.667 35.6455C22.8235 28.4576 27.0889 21.457 30.4717 15.9414C33.8553 10.4245 36.3534 6.39639 36.9775 5.14844C37.3003 4.50292 38.1323 4.02877 39.3428 3.68945C40.5568 3.34917 42.1666 3.13973 44.0664 3.03418Z" fill="black" stroke="black" stroke-width="0.1"/>
</mask>
<g mask="url(#mask0_2194_10234)">
<path d="M42.0225 8.67041C39.2225 7.47041 37.8558 4.17041 37.5225 2.67041V-5.82959L102.022 4.67041C95.6891 8.67041 82.3225 16.6704 79.5225 16.6704C76.0225 16.6704 45.5225 10.1704 42.0225 8.67041Z" fill="#C7D5CF" stroke="#0A2A1D" stroke-width="2"/>
<path d="M79.0217 18.1704C77.0212 16.1704 78.0229 16.1704 80.0225 15.1704L89.0226 10.1704L96.5233 7.17041L127.523 20.6704L136.523 46.1704C133.523 53.6704 126.523 66.7704 122.523 59.1704C117.523 49.6704 97.5228 33.1704 95.0228 30.6704C92.9611 28.6087 81.5716 20.7196 79.0217 18.1704Z" fill="#8FAA9F" stroke="#0A2A1D" stroke-width="2"/>
<path d="M91.0225 110.17C90.0295 112.819 100.855 110.337 102.522 111.17L124.022 112.17C132.689 87.6704 146.322 40.9704 131.522 50.1704C127.795 52.4875 123.37 51.5021 119.522 55.6704C110.522 79.6704 92.22 106.976 91.0225 110.17Z" fill="#527C6A" stroke="#0A2A1D" stroke-width="2"/>
</g>
<path d="M72.0195 40.9617C72.0195 41.483 71.6191 41.9168 71.0995 41.9585L60.4689 42.8109C59.9493 42.8526 59.5488 43.2865 59.5488 43.8077V50.8468C59.5488 50.872 59.5461 50.8972 59.5408 50.9218V50.9218C59.491 51.1525 59.6756 51.3667 59.911 51.3516L85.7747 49.6885C86.351 49.6514 86.8389 50.1089 86.8389 50.6864V53.6283C86.8389 54.1534 86.4328 54.589 85.909 54.6258L78.7393 55.1296C78.2196 55.1662 77.815 55.5955 77.8094 56.1165L77.5095 84.0578C77.5041 84.5633 77.1223 84.9852 76.6198 85.041L73.0478 85.4373C72.4555 85.503 71.9375 85.0394 71.9375 84.4434V56.5176C71.9375 55.9372 71.4449 55.4787 70.8659 55.5202L60.4458 56.2678C59.9309 56.3047 59.5287 56.7276 59.5176 57.2438L59.0199 80.5142C59.0087 81.038 58.5951 81.4643 58.0719 81.4915L54.9532 81.6534C54.3813 81.6831 53.9014 81.2274 53.9014 80.6547V51.4555C53.9014 50.8717 53.4033 50.412 52.8214 50.4587L42.5675 51.2816C42.0479 51.3233 41.6475 51.7571 41.6475 52.2784V56.87C41.6475 57.4501 42.1395 57.9085 42.7181 57.8675L47.6354 57.5192C48.2141 57.4782 48.7061 57.9365 48.7061 58.5167V61.4531C48.7061 61.9779 48.3003 62.4135 47.7767 62.4506L42.5768 62.8189C42.0532 62.856 41.6475 63.2915 41.6475 63.8164V83.042C41.6475 83.5542 41.2604 83.9836 40.751 84.0366L37.1035 84.4163C36.5135 84.4778 36 84.0149 36 83.4217V47.3603C36 46.8295 36.4148 46.3911 36.9449 46.3619L52.9565 45.4779C53.4866 45.4486 53.9014 45.0103 53.9014 44.4794V38.8896C53.9014 38.3588 54.3162 37.9204 54.8463 37.8912L70.9644 37.0016C71.5375 36.9699 72.0195 37.4261 72.0195 38V40.9617Z" fill="#0A2A1D"/>
<path d="M169 59.3494V20.5843H188.899V26.0114H175.202V33.2476H187.607V38.6747H175.202V59.3494H169Z" fill="#0A2A1D"/>
<path d="M194.327 59.511V33.6676H200.4V59.511H194.327ZM197.385 29.4896C196.38 29.4896 195.533 29.145 194.843 28.4559C194.154 27.738 193.81 26.8909 193.81 25.9146C193.81 24.8809 194.154 24.0338 194.843 23.3733C195.561 22.6842 196.408 22.3396 197.385 22.3396C198.418 22.3396 199.265 22.6842 199.926 23.3733C200.615 24.0625 200.96 24.9096 200.96 25.9146C200.96 26.9196 200.615 27.7667 199.926 28.4559C199.237 29.145 198.39 29.4896 197.385 29.4896Z" fill="#0A2A1D"/>
<path d="M208.497 59.3494V33.506H214.01V38.0717C214.929 36.5785 216.107 35.4012 217.542 34.5398C218.978 33.6783 220.687 33.2476 222.668 33.2476L224.046 38.8901C223.501 38.7178 222.883 38.6316 222.194 38.6316C219.897 38.6316 218.045 39.3639 216.638 40.8283C215.26 42.2928 214.57 44.389 214.57 47.1169V59.3494H208.497Z" fill="#0A2A1D"/>
<path d="M228.565 59.3494V33.506H234.078V36.7795C235.025 35.4586 236.203 34.468 237.61 33.8075C239.017 33.1471 240.496 32.8169 242.046 32.8169C243.683 32.8169 245.19 33.1758 246.569 33.8937C247.976 34.6115 249.139 35.6453 250.058 36.9949C251.063 35.6166 252.326 34.5828 253.848 33.8937C255.399 33.1758 257.064 32.8169 258.844 32.8169C260.74 32.8169 262.491 33.262 264.099 34.1521C265.707 35.0136 266.999 36.2627 267.976 37.8994C268.981 39.5361 269.483 41.5031 269.483 43.8003V59.3494H263.41V44.6187C263.41 42.7522 262.864 41.259 261.773 40.1392C260.711 38.9906 259.361 38.4163 257.724 38.4163C256.777 38.4163 255.858 38.6316 254.968 39.0624C254.106 39.4931 253.403 40.1679 252.857 41.0867C252.34 41.9769 252.082 43.1255 252.082 44.5325V59.3494H245.966V44.6187C245.966 43.3552 245.707 42.2641 245.19 41.3452C244.702 40.3976 244.027 39.6654 243.166 39.1485C242.305 38.6316 241.357 38.3732 240.323 38.3732C239.404 38.3732 238.5 38.6029 237.61 39.0624C236.748 39.4931 236.03 40.1535 235.456 41.0437C234.911 41.9338 234.638 43.0968 234.638 44.5325V59.3494H228.565Z" fill="#0A2A1D"/>
<path d="M290.124 59.3494V20.5843H310.024V26.0114H296.327V33.2476H308.731V38.6747H296.327V59.3494H290.124Z" fill="#0A2A1D"/>
<path d="M324.748 60.0386C322.221 60.0386 319.909 59.4355 317.813 58.2295C315.717 56.9948 314.051 55.3437 312.817 53.2762C311.582 51.2087 310.965 48.9259 310.965 46.4277C310.965 43.9008 311.582 41.618 312.817 39.5792C314.051 37.5118 315.717 35.875 317.813 34.669C319.909 33.4342 322.221 32.8169 324.748 32.8169C327.303 32.8169 329.615 33.4342 331.682 34.669C333.778 35.875 335.444 37.5118 336.679 39.5792C337.913 41.618 338.531 43.9008 338.531 46.4277C338.531 48.9259 337.913 51.2087 336.679 53.2762C335.444 55.3437 333.778 56.9948 331.682 58.2295C329.615 59.4355 327.303 60.0386 324.748 60.0386ZM324.748 54.4822C326.212 54.4822 327.547 54.1233 328.753 53.4054C329.959 52.6588 330.907 51.6825 331.596 50.4765C332.314 49.2705 332.673 47.9209 332.673 46.4277C332.673 44.9345 332.314 43.5849 331.596 42.3789C330.907 41.1729 329.959 40.2109 328.753 39.4931C327.547 38.7465 326.212 38.3732 324.748 38.3732C323.283 38.3732 321.948 38.7465 320.742 39.4931C319.536 40.2109 318.574 41.1729 317.856 42.3789C317.167 43.5849 316.822 44.9345 316.822 46.4277C316.822 47.9209 317.167 49.2705 317.856 50.4765C318.574 51.6825 319.522 52.6588 320.699 53.4054C321.905 54.1233 323.254 54.4822 324.748 54.4822Z" fill="#0A2A1D"/>
<path d="M353.858 60.0386C352.049 60.0386 350.355 59.5935 348.775 58.7033C347.196 57.8132 345.904 56.521 344.899 54.8268C343.922 53.1326 343.434 51.0795 343.434 48.6675V33.506H349.507V47.8491C349.507 49.6007 350.024 51.1513 351.058 52.5009C352.121 53.8218 353.599 54.4822 355.495 54.4822C357.045 54.4822 358.423 53.9223 359.629 52.8024C360.864 51.6825 361.482 50.0745 361.482 47.9783V33.506H367.555V59.3494H361.998V55.9036C361.051 57.2532 359.859 58.287 358.423 59.0048C357.016 59.694 355.495 60.0386 353.858 60.0386Z" fill="#0A2A1D"/>
<path d="M374.539 59.3494V33.506H380.052V36.9949C381 35.6453 382.177 34.6115 383.584 33.8937C385.02 33.1758 386.57 32.8169 388.236 32.8169C390.074 32.8169 391.782 33.262 393.362 34.1521C394.941 35.0423 396.219 36.3344 397.195 38.0286C398.171 39.7228 398.659 41.7759 398.659 44.188V59.3494H392.586V45.0063C392.586 43.2834 392.055 41.7472 390.993 40.3976C389.959 39.048 388.494 38.3732 386.599 38.3732C385.049 38.3732 383.656 38.9188 382.421 40.0099C381.215 41.1011 380.612 42.7235 380.612 44.8771V59.3494H374.539Z" fill="#0A2A1D"/>
<path d="M416.498 59.8663C414.115 59.8663 411.947 59.2633 409.994 58.0572C408.042 56.8512 406.477 55.2288 405.299 53.1901C404.151 51.1513 403.576 48.8972 403.576 46.4277C403.576 43.9582 404.151 41.7041 405.299 39.6654C406.477 37.6266 408.042 36.0042 409.994 34.7982C411.947 33.5922 414.115 32.9892 416.498 32.9892C418.02 32.9892 419.441 33.2476 420.762 33.7645C422.112 34.2526 423.318 34.9418 424.38 35.8319V18H430.454V59.3494H425.069V56.3774C424.007 57.4686 422.729 58.33 421.236 58.9618C419.772 59.5648 418.192 59.8663 416.498 59.8663ZM417.23 54.4392C418.666 54.4392 419.973 54.0802 421.15 53.3624C422.356 52.6445 423.304 51.6825 423.993 50.4765C424.711 49.2705 425.069 47.9209 425.069 46.4277C425.069 44.9633 424.711 43.628 423.993 42.422C423.304 41.1873 422.37 40.2109 421.193 39.4931C420.016 38.7752 418.695 38.4163 417.23 38.4163C415.795 38.4163 414.474 38.7752 413.268 39.4931C412.09 40.2109 411.143 41.1729 410.425 42.3789C409.736 43.5849 409.391 44.9345 409.391 46.4277C409.391 47.8922 409.736 49.2418 410.425 50.4765C411.143 51.6825 412.09 52.6445 413.268 53.3624C414.445 54.0802 415.766 54.4392 417.23 54.4392Z" fill="#0A2A1D"/>
<path d="M448.065 59.8663C445.711 59.8663 443.557 59.2633 441.604 58.0572C439.652 56.8512 438.087 55.2288 436.91 53.1901C435.761 51.1513 435.187 48.8972 435.187 46.4277C435.187 43.9582 435.761 41.7041 436.91 39.6654C438.087 37.6266 439.652 36.0042 441.604 34.7982C443.557 33.5922 445.711 32.9892 448.065 32.9892C449.788 32.9892 451.382 33.305 452.846 33.9367C454.34 34.5398 455.617 35.4012 456.68 36.5211V33.506H462.064V59.3494H456.68V56.3343C455.617 57.4255 454.34 58.287 452.846 58.9187C451.382 59.5504 449.788 59.8663 448.065 59.8663ZM448.841 54.4392C450.276 54.4392 451.583 54.0802 452.76 53.3624C453.966 52.6445 454.914 51.6825 455.603 50.4765C456.321 49.2705 456.68 47.9209 456.68 46.4277C456.68 44.9633 456.321 43.628 455.603 42.422C454.914 41.1873 453.981 40.2109 452.803 39.4931C451.626 38.7752 450.305 38.4163 448.841 38.4163C447.405 38.4163 446.084 38.7752 444.878 39.4931C443.701 40.2109 442.753 41.1729 442.035 42.3789C441.346 43.5849 441.001 44.9345 441.001 46.4277C441.001 47.8922 441.346 49.2418 442.035 50.4765C442.753 51.6825 443.701 52.6445 444.878 53.3624C446.055 54.0802 447.376 54.4392 448.841 54.4392Z" fill="#0A2A1D"/>
<path d="M472.057 59.3494V38.4163H466.716V33.506H472.186V24.8916H478.001V33.506H483.772V38.4163H478.13V59.3494H472.057Z" fill="#0A2A1D"/>
<path d="M488.941 59.3494V33.506H495.014V59.3494H488.941ZM491.999 29.328C490.994 29.328 490.147 28.9834 489.458 28.2943C488.769 27.5764 488.424 26.7293 488.424 25.753C488.424 24.7193 488.769 23.8722 489.458 23.2117C490.176 22.5226 491.023 22.178 491.999 22.178C493.033 22.178 493.88 22.5226 494.54 23.2117C495.229 23.9009 495.574 24.748 495.574 25.753C495.574 26.758 495.229 27.6051 494.54 28.2943C493.851 28.9834 493.004 29.328 491.999 29.328Z" fill="#0A2A1D"/>
<path d="M514.454 60.0386C511.927 60.0386 509.615 59.4355 507.519 58.2295C505.423 56.9948 503.758 55.3437 502.523 53.2762C501.288 51.2087 500.671 48.9259 500.671 46.4277C500.671 43.9008 501.288 41.618 502.523 39.5792C503.758 37.5118 505.423 35.875 507.519 34.669C509.615 33.4342 511.927 32.8169 514.454 32.8169C517.01 32.8169 519.321 33.4342 521.389 34.669C523.485 35.875 525.15 37.5118 526.385 39.5792C527.62 41.618 528.237 43.9008 528.237 46.4277C528.237 48.9259 527.62 51.2087 526.385 53.2762C525.15 55.3437 523.485 56.9948 521.389 58.2295C519.321 59.4355 517.01 60.0386 514.454 60.0386ZM514.454 54.4822C515.918 54.4822 517.254 54.1233 518.46 53.4054C519.666 52.6588 520.613 51.6825 521.302 50.4765C522.02 49.2705 522.379 47.9209 522.379 46.4277C522.379 44.9345 522.02 43.5849 521.302 42.3789C520.613 41.1729 519.666 40.2109 518.46 39.4931C517.254 38.7465 515.918 38.3732 514.454 38.3732C512.989 38.3732 511.654 38.7465 510.448 39.4931C509.242 40.2109 508.28 41.1729 507.562 42.3789C506.873 43.5849 506.529 44.9345 506.529 46.4277C506.529 47.9209 506.873 49.2705 507.562 50.4765C508.28 51.6825 509.228 52.6588 510.405 53.4054C511.611 54.1233 512.961 54.4822 514.454 54.4822Z" fill="#0A2A1D"/>
<path d="M533.657 59.3494V33.506H539.171V36.9949C540.118 35.6453 541.296 34.6115 542.703 33.8937C544.138 33.1758 545.689 32.8169 547.354 32.8169C549.192 32.8169 550.901 33.262 552.48 34.1521C554.059 35.0423 555.337 36.3344 556.313 38.0286C557.29 39.7228 557.778 41.7759 557.778 44.188V59.3494H551.705V45.0063C551.705 43.2834 551.173 41.7472 550.111 40.3976C549.077 39.048 547.613 38.3732 545.718 38.3732C544.167 38.3732 542.774 38.9188 541.54 40.0099C540.334 41.1011 539.731 42.7235 539.731 44.8771V59.3494H533.657Z" fill="#0A2A1D"/>
<path d="M174.722 83.114H169V80.2391H183.458V83.114H177.736V99.6651H174.722V83.114Z" fill="#0A2A1D"/>
<path d="M207.34 80.2391V99.6651H204.325V90.8732H194.445V99.6651H191.431V80.2391H194.445V88.1379H204.325V80.2391H207.34Z" fill="#0A2A1D"/>
<path d="M219.838 83.0023V88.5566H228.295V91.1523H219.838V96.9019H228.909V99.6651H216.824V80.2391H228.909V83.0023H219.838Z" fill="#0A2A1D"/>
<path d="M248.884 99.6651L244.92 92.1571H240.762V99.6651H237.747V80.2391H244.53C246.93 80.2391 248.726 80.7415 249.916 81.7463C251.107 82.7325 251.703 84.1653 251.703 86.0446C251.703 87.4215 251.396 88.5938 250.782 89.5614C250.168 90.5103 249.256 91.2081 248.046 91.6547L252.317 99.6651H248.884ZM244.557 89.4218C245.897 89.4218 246.883 89.1706 247.516 88.6682C248.167 88.1658 248.493 87.3099 248.493 86.1004C248.493 84.9654 248.177 84.1653 247.544 83.7001C246.911 83.2349 245.907 83.0023 244.53 83.0023H240.762V89.4218H244.557Z" fill="#0A2A1D"/>
<path d="M271.86 94.8644H262.956L261.17 99.6651H258.156L265.58 80.2391H269.376L276.8 99.6651H273.646L271.86 94.8644ZM270.883 92.2966L267.422 83.0302L263.933 92.2966H270.883Z" fill="#0A2A1D"/>
<path d="M284.091 80.2391H290.455C295.516 80.2391 298.047 82.3604 298.047 86.6028C298.047 88.724 297.423 90.3522 296.177 91.4872C294.93 92.6222 293.106 93.1898 290.706 93.1898H287.106V99.6651H284.091V80.2391ZM290.511 90.4824C292.018 90.4824 293.116 90.194 293.804 89.6172C294.493 89.0404 294.837 88.0728 294.837 86.7145C294.837 85.3747 294.493 84.4258 293.804 83.8675C293.134 83.2907 292.018 83.0023 290.455 83.0023H287.106V90.4824H290.511Z" fill="#0A2A1D"/>
<path d="M320.045 80.2391L313.095 92.7432V99.6651H310.081V92.7432L303.131 80.2391H306.48L311.616 89.8405L316.835 80.2391H320.045Z" fill="#0A2A1D"/>
<path d="M337.976 80.2391H344.339C349.4 80.2391 351.931 82.3604 351.931 86.6028C351.931 88.724 351.308 90.3522 350.061 91.4872C348.814 92.6222 346.991 93.1898 344.59 93.1898H340.99V99.6651H337.976V80.2391ZM344.395 90.4824C345.902 90.4824 347 90.194 347.689 89.6172C348.377 89.0404 348.721 88.0728 348.721 86.7145C348.721 85.3747 348.377 84.4258 347.689 83.8675C347.019 83.2907 345.902 83.0023 344.339 83.0023H340.99V90.4824H344.395Z" fill="#0A2A1D"/>
<path d="M359.471 80.2391H362.486V96.9019H370.971V99.6651H359.471V80.2391Z" fill="#0A2A1D"/>
<path d="M378.732 80.2391H381.746V96.9019H390.231V99.6651H378.732V80.2391Z" fill="#0A2A1D"/>
<path d="M405.094 100C403.084 100 401.372 99.5907 399.958 98.7719C398.544 97.9346 397.474 96.7624 396.749 95.2552C396.023 93.748 395.66 91.9803 395.66 89.9521C395.66 87.9239 396.023 86.1562 396.749 84.649C397.493 83.1419 398.572 81.9789 399.986 81.1602C401.419 80.3229 403.14 79.9042 405.15 79.9042C406.117 79.9042 407.066 80.0158 407.997 80.2391C408.927 80.4438 409.764 80.7601 410.509 81.1881V84.2583H410.397C409.727 83.7559 408.946 83.3558 408.052 83.0581C407.178 82.7604 406.275 82.6116 405.345 82.6116C403.242 82.6116 401.633 83.2628 400.517 84.5653C399.419 85.8492 398.87 87.6448 398.87 89.9521C398.87 92.2594 399.409 94.0643 400.489 95.3668C401.586 96.6507 403.177 97.2927 405.261 97.2927C406.192 97.2927 407.104 97.1438 407.997 96.8461C408.89 96.5298 409.69 96.0925 410.397 95.5343H410.509V98.6045C408.964 99.5348 407.159 100 405.094 100Z" fill="#0A2A1D"/>
</svg>
