<svg width="251" height="189" viewBox="0 0 251 189" fill="none" xmlns="http://www.w3.org/2000/svg">
<path d="M0 162V137H12.8333V140.5H4V145.167H12V148.667H4V162H0Z" fill="#0A2A1D"/>
<path d="M16.3333 162.104V145.438H20.25V162.104H16.3333ZM18.3056 142.743C17.6574 142.743 17.1111 142.521 16.6667 142.076C16.2222 141.613 16 141.067 16 140.438C16 139.771 16.2222 139.225 16.6667 138.799C17.1296 138.354 17.6759 138.132 18.3056 138.132C18.9722 138.132 19.5185 138.354 19.9444 138.799C20.3889 139.243 20.6111 139.789 20.6111 140.438C20.6111 141.086 20.3889 141.632 19.9444 142.076C19.5 142.521 18.9537 142.743 18.3056 142.743Z" fill="#0A2A1D"/>
<path d="M25.4722 162V145.333H29.0277V148.278C29.6203 147.315 30.3796 146.556 31.3055 146C32.2314 145.444 33.3333 145.167 34.6111 145.167L35.5 148.806C35.1481 148.694 34.75 148.639 34.3056 148.639C32.8241 148.639 31.6296 149.111 30.7222 150.056C29.8333 151 29.3888 152.352 29.3888 154.111V162H25.4722Z" fill="#0A2A1D"/>
<path d="M38.4138 162V145.333H41.9694V147.444C42.5805 146.593 43.3397 145.954 44.2471 145.528C45.1545 145.102 46.1082 144.889 47.1082 144.889C48.1638 144.889 49.136 145.12 50.0249 145.583C50.9323 146.046 51.6823 146.713 52.2749 147.583C52.9231 146.694 53.7379 146.028 54.7194 145.583C55.7194 145.12 56.7934 144.889 57.9416 144.889C59.1638 144.889 60.2934 145.176 61.3305 145.75C62.3675 146.306 63.2008 147.111 63.8305 148.167C64.4786 149.222 64.8027 150.491 64.8027 151.972V162H60.886V152.5C60.886 151.296 60.5342 150.333 59.8305 149.611C59.1453 148.87 58.2749 148.5 57.2194 148.5C56.6082 148.5 56.0156 148.639 55.4416 148.917C54.886 149.194 54.4323 149.63 54.0805 150.222C53.7471 150.796 53.5805 151.537 53.5805 152.444V162H49.636V152.5C49.636 151.685 49.4693 150.981 49.136 150.389C48.8212 149.778 48.386 149.306 47.8305 148.972C47.2749 148.639 46.6638 148.472 45.9971 148.472C45.4045 148.472 44.8212 148.62 44.2471 148.917C43.6916 149.194 43.2286 149.62 42.8582 150.194C42.5064 150.769 42.3305 151.519 42.3305 152.444V162H38.4138Z" fill="#0A2A1D"/>
<path d="M78.1143 162V137H90.9477V140.5H82.1143V145.167H90.1143V148.667H82.1143V162H78.1143Z" fill="#0A2A1D"/>
<path d="M100.443 162.444C98.8137 162.444 97.3229 162.056 95.9711 161.278C94.6192 160.481 93.5452 159.417 92.7489 158.083C91.9526 156.75 91.5544 155.278 91.5544 153.667C91.5544 152.037 91.9526 150.565 92.7489 149.25C93.5452 147.917 94.6192 146.861 95.9711 146.083C97.3229 145.287 98.8137 144.889 100.443 144.889C102.091 144.889 103.582 145.287 104.916 146.083C106.267 146.861 107.341 147.917 108.138 149.25C108.934 150.565 109.332 152.037 109.332 153.667C109.332 155.278 108.934 156.75 108.138 158.083C107.341 159.417 106.267 160.481 104.916 161.278C103.582 162.056 102.091 162.444 100.443 162.444ZM100.443 158.861C101.388 158.861 102.249 158.63 103.027 158.167C103.804 157.685 104.416 157.056 104.86 156.278C105.323 155.5 105.554 154.63 105.554 153.667C105.554 152.704 105.323 151.833 104.86 151.056C104.416 150.278 103.804 149.657 103.027 149.194C102.249 148.713 101.388 148.472 100.443 148.472C99.4989 148.472 98.6378 148.713 97.86 149.194C97.0822 149.657 96.4618 150.278 95.9989 151.056C95.5544 151.833 95.3322 152.704 95.3322 153.667C95.3322 154.63 95.5544 155.5 95.9989 156.278C96.4618 157.056 97.0729 157.685 97.8322 158.167C98.61 158.63 99.4804 158.861 100.443 158.861Z" fill="#0A2A1D"/>
<path d="M119.217 162.444C118.05 162.444 116.957 162.157 115.939 161.583C114.92 161.009 114.087 160.176 113.439 159.083C112.809 157.991 112.495 156.667 112.495 155.111V145.333H116.411V154.583C116.411 155.713 116.745 156.713 117.411 157.583C118.096 158.435 119.05 158.861 120.272 158.861C121.272 158.861 122.161 158.5 122.939 157.778C123.735 157.056 124.133 156.019 124.133 154.667V145.333H128.05V162H124.467V159.778C123.856 160.648 123.087 161.315 122.161 161.778C121.254 162.222 120.272 162.444 119.217 162.444Z" fill="#0A2A1D"/>
<path d="M132.554 162V145.333H136.11V147.583C136.721 146.713 137.48 146.046 138.388 145.583C139.313 145.12 140.313 144.889 141.388 144.889C142.573 144.889 143.675 145.176 144.693 145.75C145.712 146.324 146.536 147.157 147.165 148.25C147.795 149.343 148.11 150.667 148.11 152.222V162H144.193V152.75C144.193 151.639 143.851 150.648 143.165 149.778C142.499 148.907 141.554 148.472 140.332 148.472C139.332 148.472 138.434 148.824 137.638 149.528C136.86 150.231 136.471 151.278 136.471 152.667V162H132.554Z" fill="#0A2A1D"/>
<path d="M159.614 162.333C158.077 162.333 156.679 161.944 155.42 161.167C154.16 160.389 153.151 159.343 152.392 158.028C151.651 156.713 151.281 155.259 151.281 153.667C151.281 152.074 151.651 150.62 152.392 149.306C153.151 147.991 154.16 146.944 155.42 146.167C156.679 145.389 158.077 145 159.614 145C160.596 145 161.512 145.167 162.364 145.5C163.235 145.815 164.012 146.259 164.697 146.833V135.333H168.614V162H165.142V160.083C164.457 160.787 163.633 161.343 162.67 161.75C161.725 162.139 160.707 162.333 159.614 162.333ZM160.086 158.833C161.012 158.833 161.855 158.602 162.614 158.139C163.392 157.676 164.003 157.056 164.447 156.278C164.91 155.5 165.142 154.63 165.142 153.667C165.142 152.722 164.91 151.861 164.447 151.083C164.003 150.287 163.401 149.657 162.642 149.194C161.883 148.731 161.031 148.5 160.086 148.5C159.16 148.5 158.309 148.731 157.531 149.194C156.772 149.657 156.16 150.278 155.697 151.056C155.253 151.833 155.031 152.704 155.031 153.667C155.031 154.611 155.253 155.481 155.697 156.278C156.16 157.056 156.772 157.676 157.531 158.139C158.29 158.602 159.142 158.833 160.086 158.833Z" fill="#0A2A1D"/>
<path d="M179.972 162.333C178.454 162.333 177.065 161.944 175.806 161.167C174.546 160.389 173.537 159.343 172.778 158.028C172.037 156.713 171.667 155.259 171.667 153.667C171.667 152.074 172.037 150.62 172.778 149.306C173.537 147.991 174.546 146.944 175.806 146.167C177.065 145.389 178.454 145 179.972 145C181.083 145 182.111 145.204 183.056 145.611C184.018 146 184.843 146.556 185.528 147.278V145.333H189V162H185.528V160.056C184.843 160.759 184.018 161.315 183.056 161.722C182.111 162.13 181.083 162.333 179.972 162.333ZM180.472 158.833C181.398 158.833 182.241 158.602 183 158.139C183.778 157.676 184.389 157.056 184.833 156.278C185.296 155.5 185.528 154.63 185.528 153.667C185.528 152.722 185.296 151.861 184.833 151.083C184.389 150.287 183.787 149.657 183.028 149.194C182.268 148.731 181.417 148.5 180.472 148.5C179.546 148.5 178.694 148.731 177.917 149.194C177.157 149.657 176.546 150.278 176.083 151.056C175.639 151.833 175.417 152.704 175.417 153.667C175.417 154.611 175.639 155.481 176.083 156.278C176.546 157.056 177.157 157.676 177.917 158.139C178.676 158.602 179.528 158.833 180.472 158.833Z" fill="#0A2A1D"/>
<path d="M195.444 162V148.5H192V145.333H195.528V139.778H199.278V145.333H203V148.5H199.361V162H195.444Z" fill="#0A2A1D"/>
<path d="M206.333 162V145.333H210.25V162H206.333ZM208.306 142.639C207.657 142.639 207.111 142.417 206.667 141.972C206.222 141.509 206 140.963 206 140.333C206 139.667 206.222 139.12 206.667 138.694C207.13 138.25 207.676 138.028 208.306 138.028C208.972 138.028 209.518 138.25 209.944 138.694C210.389 139.139 210.611 139.685 210.611 140.333C210.611 140.981 210.389 141.528 209.944 141.972C209.5 142.417 208.954 142.639 208.306 142.639Z" fill="#0A2A1D"/>
<path d="M222.787 162.444C221.157 162.444 219.667 162.056 218.315 161.278C216.963 160.481 215.889 159.417 215.092 158.083C214.296 156.75 213.898 155.278 213.898 153.667C213.898 152.037 214.296 150.565 215.092 149.25C215.889 147.917 216.963 146.861 218.315 146.083C219.667 145.287 221.157 144.889 222.787 144.889C224.435 144.889 225.926 145.287 227.259 146.083C228.611 146.861 229.685 147.917 230.481 149.25C231.278 150.565 231.676 152.037 231.676 153.667C231.676 155.278 231.278 156.75 230.481 158.083C229.685 159.417 228.611 160.481 227.259 161.278C225.926 162.056 224.435 162.444 222.787 162.444ZM222.787 158.861C223.731 158.861 224.592 158.63 225.37 158.167C226.148 157.685 226.759 157.056 227.204 156.278C227.667 155.5 227.898 154.63 227.898 153.667C227.898 152.704 227.667 151.833 227.204 151.056C226.759 150.278 226.148 149.657 225.37 149.194C224.592 148.713 223.731 148.472 222.787 148.472C221.842 148.472 220.981 148.713 220.204 149.194C219.426 149.657 218.805 150.278 218.342 151.056C217.898 151.833 217.676 152.704 217.676 153.667C217.676 154.63 217.898 155.5 218.342 156.278C218.805 157.056 219.417 157.685 220.176 158.167C220.954 158.63 221.824 158.861 222.787 158.861Z" fill="#0A2A1D"/>
<path d="M235.171 162V145.333H238.727V147.583C239.338 146.713 240.097 146.046 241.005 145.583C241.931 145.12 242.931 144.889 244.005 144.889C245.19 144.889 246.292 145.176 247.31 145.75C248.329 146.324 249.153 147.157 249.783 148.25C250.412 149.343 250.727 150.667 250.727 152.222V162H246.81V152.75C246.81 151.639 246.468 150.648 245.783 149.778C245.116 148.907 244.171 148.472 242.949 148.472C241.949 148.472 241.051 148.824 240.255 149.528C239.477 150.231 239.088 151.278 239.088 152.667V162H235.171Z" fill="#0A2A1D"/>
<path d="M50.9927 177.326H47.3027V175.472H56.6267V177.326H52.9367V188H50.9927V177.326Z" fill="#0A2A1D"/>
<path d="M72.0284 175.472V188H70.0844V182.33H63.7124V188H61.7684V175.472H63.7124V180.566H70.0844V175.472H72.0284Z" fill="#0A2A1D"/>
<path d="M80.0889 177.254V180.836H85.5429V182.51H80.0889V186.218H85.9389V188H78.1449V175.472H85.9389V177.254H80.0889Z" fill="#0A2A1D"/>
<path d="M98.8206 188L96.2646 183.158H93.5826V188H91.6386V175.472H96.0126C97.5606 175.472 98.7186 175.796 99.4866 176.444C100.255 177.08 100.639 178.004 100.639 179.216C100.639 180.104 100.441 180.86 100.045 181.484C99.6486 182.096 99.0606 182.546 98.2806 182.834L101.035 188H98.8206ZM96.0306 181.394C96.8946 181.394 97.5306 181.232 97.9386 180.908C98.3586 180.584 98.5686 180.032 98.5686 179.252C98.5686 178.52 98.3646 178.004 97.9566 177.704C97.5486 177.404 96.9006 177.254 96.0126 177.254H93.5826V181.394H96.0306Z" fill="#0A2A1D"/>
<path d="M113.638 184.904H107.896L106.744 188H104.8L109.588 175.472H112.036L116.824 188H114.79L113.638 184.904ZM113.008 183.248L110.776 177.272L108.526 183.248H113.008Z" fill="#0A2A1D"/>
<path d="M121.526 175.472H125.63C128.894 175.472 130.526 176.84 130.526 179.576C130.526 180.944 130.124 181.994 129.32 182.726C128.516 183.458 127.34 183.824 125.792 183.824H123.47V188H121.526V175.472ZM125.666 182.078C126.638 182.078 127.346 181.892 127.79 181.52C128.234 181.148 128.456 180.524 128.456 179.648C128.456 178.784 128.234 178.172 127.79 177.812C127.358 177.44 126.638 177.254 125.63 177.254H123.47V182.078H125.666Z" fill="#0A2A1D"/>
<path d="M144.713 175.472L140.231 183.536V188H138.287V183.536L133.805 175.472H135.965L139.277 181.664L142.643 175.472H144.713Z" fill="#0A2A1D"/>
<path d="M156.277 175.472H160.381C163.645 175.472 165.277 176.84 165.277 179.576C165.277 180.944 164.875 181.994 164.071 182.726C163.267 183.458 162.091 183.824 160.543 183.824H158.221V188H156.277V175.472ZM160.417 182.078C161.389 182.078 162.097 181.892 162.541 181.52C162.985 181.148 163.207 180.524 163.207 179.648C163.207 178.784 162.985 178.172 162.541 177.812C162.109 177.44 161.389 177.254 160.381 177.254H158.221V182.078H160.417Z" fill="#0A2A1D"/>
<path d="M170.14 175.472H172.084V186.218H177.556V188H170.14V175.472Z" fill="#0A2A1D"/>
<path d="M182.561 175.472H184.505V186.218H189.977V188H182.561V175.472Z" fill="#0A2A1D"/>
<path d="M199.562 188.216C198.266 188.216 197.162 187.952 196.25 187.424C195.338 186.884 194.648 186.128 194.18 185.156C193.712 184.184 193.478 183.044 193.478 181.736C193.478 180.428 193.712 179.288 194.18 178.316C194.66 177.344 195.356 176.594 196.268 176.066C197.192 175.526 198.302 175.256 199.598 175.256C200.222 175.256 200.834 175.328 201.434 175.472C202.034 175.604 202.574 175.808 203.054 176.084V178.064H202.982C202.55 177.74 202.046 177.482 201.47 177.29C200.906 177.098 200.324 177.002 199.724 177.002C198.368 177.002 197.33 177.422 196.61 178.262C195.902 179.09 195.548 180.248 195.548 181.736C195.548 183.224 195.896 184.388 196.592 185.228C197.3 186.056 198.326 186.47 199.67 186.47C200.27 186.47 200.858 186.374 201.434 186.182C202.01 185.978 202.526 185.696 202.982 185.336H203.054V187.316C202.058 187.916 200.894 188.216 199.562 188.216Z" fill="#0A2A1D"/>
<path d="M102.986 1.58691C106.885 1.37035 111.933 1.57979 117.262 1.9873C127.919 2.80231 139.995 4.43592 146.688 5.17969C153.944 5.98598 160.122 10.5254 164.944 15.2207C167.373 17.5851 169.504 20.0366 171.294 22.1562C173.118 24.3166 174.517 26.0436 175.583 27.1094C176.671 28.1974 177.975 29.351 179.405 30.6309C180.82 31.897 182.338 33.2696 183.782 34.7461C186.654 37.6815 189.371 41.158 190.472 45.2842C191.54 49.2887 191.526 52.5046 190.883 57.0078C190.565 59.2319 190.09 61.7978 189.514 64.9268C188.936 68.0657 188.25 71.8022 187.503 76.4102C184.464 95.1514 179.357 102.93 174.638 108.174C174.158 108.707 173.462 109.037 172.833 109.265C172.158 109.509 171.338 109.713 170.417 109.888C168.571 110.238 166.154 110.503 163.33 110.706C157.673 111.113 150.214 111.284 142.061 111.357C125.701 111.504 106.552 111.254 93.0684 111.67C89.8265 111.77 87.287 109.631 84.7842 106.858C83.5011 105.437 82.1268 103.729 80.6074 101.856C79.0779 99.9715 77.3774 97.89 75.4014 95.667C67.577 86.8645 61.5846 82.424 60.5283 70.8066C60.3735 69.1041 60.8629 66.8764 61.6699 64.4326C62.4942 61.9364 63.7187 59.0203 65.2041 55.8604C68.1764 49.5374 72.2479 42.1195 76.4111 34.9199C80.5776 27.7147 84.8523 20.7002 88.2363 15.1826C91.6552 9.60827 94.0938 5.67348 94.6807 4.5C95.3016 3.25811 96.6946 2.64545 97.9521 2.29297C99.3144 1.91121 101.045 1.69479 102.986 1.58691Z" stroke="#0A2A1D" stroke-width="3"/>
<mask id="mask0_2194_10233" style="mask-type:alpha" maskUnits="userSpaceOnUse" x="61" y="2" width="129" height="109">
<path d="M103.066 3.03418C106.867 2.82306 111.838 3.02633 117.151 3.43262C127.777 4.2452 139.78 5.8713 146.528 6.62109C153.295 7.37304 159.18 11.6325 163.933 16.2598C166.309 18.5738 168.404 20.9812 170.186 23.0908C171.968 25.2018 173.435 27.0117 174.558 28.1348C175.681 29.2585 177.024 30.4449 178.438 31.7109C179.853 32.9766 181.339 34.3219 182.746 35.7607C185.56 38.6376 188.068 41.8949 189.071 45.6572C190.074 49.4157 190.073 52.4235 189.447 56.8027C189.135 58.9914 188.666 61.5239 188.088 64.6641C187.51 67.8046 186.822 71.5543 186.072 76.1787C183.071 94.6866 178.067 102.196 173.56 107.204C173.326 107.464 172.896 107.694 172.299 107.901C171.7 108.109 170.926 108.296 169.996 108.463C168.136 108.798 165.647 109.058 162.679 109.26C156.743 109.663 148.885 109.835 140.298 109.908C123.121 110.054 103.024 109.804 89.5244 110.221C89.2603 110.229 88.9842 110.128 88.6904 109.934C88.3965 109.739 88.0803 109.45 87.7354 109.075C87.0455 108.326 86.2319 107.227 85.2324 105.849C83.2323 103.09 80.4833 99.2018 76.4854 94.7041C68.4912 85.7107 62.9745 81.6954 61.9727 70.6748C61.8467 69.2889 62.2487 67.3036 63.0469 64.8867C63.8456 62.4682 65.0437 59.611 66.5166 56.4775C69.4628 50.21 73.5105 42.8334 77.667 35.6455C81.8235 28.4576 86.0889 21.457 89.4717 15.9414C92.8553 10.4245 95.3534 6.39639 95.9775 5.14844C96.3003 4.50292 97.1323 4.02877 98.3428 3.68945C99.5568 3.34917 101.167 3.13973 103.066 3.03418Z" fill="black" stroke="black" stroke-width="0.1"/>
</mask>
<g mask="url(#mask0_2194_10233)">
<path d="M101.022 8.67041C98.2225 7.47041 96.8558 4.17041 96.5225 2.67041V-5.82959L161.022 4.67041C154.689 8.67041 141.322 16.6704 138.522 16.6704C135.022 16.6704 104.522 10.1704 101.022 8.67041Z" fill="#C7D5CF" stroke="#0A2A1D" stroke-width="2"/>
<path d="M138.022 18.1704C136.021 16.1704 137.023 16.1704 139.022 15.1704L148.023 10.1704L155.523 7.17041L186.523 20.6704L195.523 46.1704C192.523 53.6704 185.523 66.7704 181.523 59.1704C176.523 49.6704 156.523 33.1704 154.023 30.6704C151.961 28.6087 140.572 20.7196 138.022 18.1704Z" fill="#8FAA9F" stroke="#0A2A1D" stroke-width="2"/>
<path d="M150.022 110.17C149.03 112.819 159.855 110.337 161.522 111.17L183.022 112.17C191.689 87.6704 205.322 40.9704 190.522 50.1704C186.795 52.4875 182.37 51.5021 178.522 55.6704C169.522 79.6704 151.22 106.976 150.022 110.17Z" fill="#527C6A" stroke="#0A2A1D" stroke-width="2"/>
</g>
<path d="M131.02 40.9617C131.02 41.483 130.619 41.9169 130.099 41.9585L119.469 42.811C118.949 42.8527 118.549 43.2865 118.549 43.8078V50.8468C118.549 50.872 118.546 50.8972 118.541 50.9219V50.9219C118.491 51.1525 118.676 51.3668 118.911 51.3516L144.775 49.6885C145.351 49.6515 145.839 50.109 145.839 50.6865V53.6283C145.839 54.1534 145.433 54.5891 144.909 54.6259L137.739 55.1297C137.22 55.1662 136.815 55.5956 136.809 56.1165L136.51 84.0579C136.504 84.5633 136.122 84.9853 135.62 85.041L132.048 85.4374C131.455 85.5031 130.938 85.0394 130.938 84.4435V56.5177C130.938 55.9372 130.445 55.4787 129.866 55.5202L119.446 56.2678C118.931 56.3048 118.529 56.7277 118.518 57.2439L118.02 80.5143C118.009 81.038 117.595 81.4644 117.072 81.4915L113.953 81.6534C113.381 81.6831 112.901 81.2274 112.901 80.6548V51.4555C112.901 50.8717 112.403 50.412 111.821 50.4587L101.567 51.2816C101.048 51.3233 100.647 51.7572 100.647 52.2784V56.87C100.647 57.4501 101.139 57.9085 101.718 57.8675L106.635 57.5192C107.214 57.4782 107.706 57.9366 107.706 58.5167V61.4531C107.706 61.978 107.3 62.4135 106.777 62.4506L101.577 62.8189C101.053 62.856 100.647 63.2916 100.647 63.8164V83.0421C100.647 83.5543 100.26 83.9836 99.751 84.0367L96.1035 84.4164C95.5135 84.4778 95 84.015 95 83.4217V47.3604C95 46.8295 95.4148 46.3912 95.9449 46.3619L111.956 45.4779C112.487 45.4487 112.901 45.0103 112.901 44.4795V38.8897C112.901 38.3588 113.316 37.9205 113.846 37.8912L129.964 37.0016C130.537 36.97 131.02 37.4261 131.02 38.0001V40.9617Z" fill="#0A2A1D"/>
</svg>
